<?xml version="1.0" encoding="UTF-8" standalone="no"?>
<svg
   width="1457"
   height="737"
   xml:space="preserve"
   overflow="hidden"
   version="1.1"
   id="svg14"
   sodipodi:docname="banana2.svg"
   inkscape:version="1.3 (0e150ed6c4, 2023-07-21)"
   xmlns:inkscape="http://www.inkscape.org/namespaces/inkscape"
   xmlns:sodipodi="http://sodipodi.sourceforge.net/DTD/sodipodi-0.dtd"
   xmlns="http://www.w3.org/2000/svg"
   xmlns:svg="http://www.w3.org/2000/svg"><sodipodi:namedview
     id="namedview14"
     pagecolor="#ffffff"
     bordercolor="#000000"
     borderopacity="0.25"
     inkscape:showpageshadow="2"
     inkscape:pageopacity="0.0"
     inkscape:pagecheckerboard="0"
     inkscape:deskcolor="#d1d1d1"
     inkscape:zoom="0.47051477"
     inkscape:cx="160.46255"
     inkscape:cy="137.0839"
     inkscape:window-width="2560"
     inkscape:window-height="1369"
     inkscape:window-x="-8"
     inkscape:window-y="-8"
     inkscape:window-maximized="1"
     inkscape:current-layer="svg14" /><defs
     id="defs4"><clipPath
       id="clip0"><rect
         x="844"
         y="671"
         width="1457"
         height="737"
         id="rect1" /></clipPath><clipPath
       id="clip1"><path
         d="M844.238 829.371 2249.49 704.704 2300.78 1282.78 895.523 1407.45Z"
         fill-rule="evenodd"
         clip-rule="evenodd"
         id="path1" /></clipPath><clipPath
       id="clip2"><path
         d="M844.238 829.371 2249.49 704.704 2300.78 1282.78 895.523 1407.45Z"
         fill-rule="evenodd"
         clip-rule="evenodd"
         id="path2" /></clipPath><clipPath
       id="clip3"><path
         d="M844.238 829.371 2249.49 704.704 2300.78 1282.78 895.523 1407.45Z"
         fill-rule="evenodd"
         clip-rule="evenodd"
         id="path3" /></clipPath><clipPath
       id="clip4"><path
         d="M1533.4-7.97028 2580.36 862.392 1458.77 1740.64 411.807 870.277Z"
         fill-rule="evenodd"
         clip-rule="evenodd"
         id="path4" /></clipPath></defs><g
     clip-path="url(#clip0)"
     transform="translate(-844 -671)"
     id="g14"><g
       clip-path="url(#clip1)"
       id="g8"><g
         clip-path="url(#clip2)"
         id="g7"><g
           clip-path="url(#clip3)"
           id="g6"><g
             clip-path="url(#clip4)"
             id="g5"><path
               d="M2397.49 1175.38C2417.13 1149.47 2430.79 1119.53 2437.48 1087.71L2447.86 1038.28C2452.1 1017.76 2463.8 999.541 2480.71 987.159 2507.38 967.73 2535.57 950.938 2546.18 944.623L2548.11 943.477C2560.55 935.967 2571 918.858 2550.13 879.965 2549.93 879.707 2534.94 852.139 2513.01 848.546 2504.31 847.065 2495.42 849.866 2489.13 856.069 2456.67 881.782 2422.92 905.827 2388 928.109 2377.66 935.039 2365.42 938.618 2352.97 938.354L2341.34 938.135C2305.21 937.235 2269.39 945.047 2236.91 960.915 2014.12 1084.48 1736.07 975.219 1535.43 786.57 1518.02 769.806 1490.85 768.628 1472.05 783.814L1445.75 805.075C1432.64 815.58 1426 832.192 1428.25 848.841 1443.46 955.316 1487.19 1055.7 1554.8 1139.34 1556.59 1141.55 1558.37 1143.75 1560.16 1145.96 1732.47 1352.06 2075.83 1416.18 2280.27 1280.78 2325.35 1252.95 2365.05 1217.25 2397.49 1175.38ZM2266.44 1259.11C2071.71 1388.07 1744.48 1326.28 1579.9 1129.5 1512.3 1048.34 1468.58 949.996 1453.62 845.442 1452.59 837.755 1455.68 830.096 1461.75 825.276L1488.19 803.904C1496.88 796.842 1509.47 797.36 1517.56 805.113 1750.96 1008.25 1983.4 1112.32 2241.66 987.225 2272.09 970.979 2306.23 962.903 2340.72 963.789L2352.46 963.987C2370.16 964.369 2387.55 959.281 2402.26 949.422 2428.14 932.151 2490.1 890.303 2506.69 874.78 2507.87 873.678 2508.31 873.754 2508.85 873.848 2514.4 876.118 2519.16 879.968 2522.54 884.92 2524.39 887.179 2526.04 889.601 2527.45 892.159 2538.69 913.069 2536.56 920.419 2534.85 921.465L2533 922.556C2522.11 929.051 2493.18 946.274 2465.51 966.43 2443.49 982.576 2428.24 1006.31 2422.69 1033.04L2412.32 1082.43 2412.32 1082.43C2406.44 1110.48 2394.41 1136.87 2377.11 1159.72 2346.48 1199.22 2308.99 1232.88 2266.44 1259.11Z"
               fill="#F7B239"
               transform="matrix(1.2404 -0.110042 0.0883678 0.996088 -995.156 216.35)"
               id="path5" /></g></g></g></g><path
       d="M1159.7 1024.75C1144.9 1010.87 1125.05 1017.2 1100.16 1043.74 1076.16 1069.33 1071.56 1089.07 1086.36 1102.95 1101.16 1116.83 1120.56 1110.97 1144.56 1085.38 1169.45 1058.84 1174.5 1038.63 1159.7 1024.75ZM1172.06 1011.57C1197.07 1035.03 1193.01 1064.43 1159.88 1099.76 1127.64 1134.13 1099.02 1139.58 1074 1116.12 1048.99 1092.66 1052.6 1063.74 1084.83 1029.37 1117.97 994.044 1147.04 988.111 1172.06 1011.57Z"
       fill="#333333"
       fill-rule="evenodd"
       id="path8" /><text
       fill="#000000"
       fill-opacity="0"
       font-family="Arial,Arial_MSFontService,sans-serif"
       font-size="132.871"
       x="1057.61"
       y="1113.79"
       id="text8">O</text><path
       d="M1231.62 1077.31 1211.86 1122.25 1237.03 1133.31C1244.16 1136.45 1250.54 1137 1256.19 1134.98 1261.83 1132.95 1266.15 1128.53 1269.16 1121.7 1272.45 1114.21 1272.99 1107.57 1270.79 1101.77 1268.58 1095.97 1263.91 1091.51 1256.78 1088.37ZM1220.43 1052.02 1236.07 1058.89 1239.12 1060.23 1264.29 1071.3C1277.53 1077.12 1286.29 1084.97 1290.56 1094.86 1294.82 1104.74 1294.25 1115.85 1288.82 1128.2 1283.18 1141.02 1275.2 1149.38 1264.87 1153.27 1261 1154.74 1256.92 1155.51 1252.64 1155.61L1250.92 1155.56 1254.38 1219.23 1232.81 1209.75 1231.04 1150.99 1229.52 1150.39 1204.35 1139.32 1183.02 1187.86 1164.32 1179.64Z"
       fill="#333333"
       fill-rule="evenodd"
       id="path9" /><text
       fill="#000000"
       fill-opacity="0"
       font-family="Arial,Arial_MSFontService,sans-serif"
       font-size="167.211"
       x="1164.32"
       y="1198.33"
       id="text9">R</text><path
       d="M1386.38 1105.83C1395.94 1107.78 1404 1110.97 1410.58 1115.41 1417.16 1119.86 1421.59 1125.15 1423.88 1131.29L1406.65 1142.62C1404.59 1137.66 1401.57 1133.54 1397.59 1130.26 1393.62 1126.98 1389.06 1124.81 1383.93 1123.77 1370.98 1121.14 1360 1123.56 1350.99 1131.05 1341.99 1138.53 1335.83 1150.45 1332.5 1166.81 1328.86 1184.7 1329.72 1198.85 1335.08 1209.26 1340.45 1219.67 1350.25 1226.32 1364.49 1229.22 1369.06 1230.15 1373.29 1230.66 1377.18 1230.76L1380.81 1230.72 1387.42 1198.22 1360.29 1192.7 1364.01 1174.42 1391.14 1179.94 1409.61 1183.7 1410.19 1183.81 1397.08 1248.27C1394.22 1248.56 1389.25 1248.77 1382.17 1248.9 1375.1 1249.03 1367.24 1248.21 1358.58 1246.45 1338.18 1242.3 1324.08 1233.32 1316.27 1219.51 1308.46 1205.7 1306.94 1187.06 1311.72 1163.58 1316.24 1141.33 1325.04 1125.17 1338.11 1115.1 1351.18 1105.03 1367.27 1101.95 1386.38 1105.83Z"
       fill="#333333"
       fill-rule="evenodd"
       id="path10" /><text
       fill="#000000"
       fill-opacity="0"
       font-family="Arial,Arial_MSFontService,sans-serif"
       font-size="144.701"
       x="1309"
       y="1230.82"
       id="text10">G</text><path
       d="M1499.67 1136.81 1478.84 1206.13 1518.23 1207.27 1501.44 1136.86ZM1486.82 1119.54 1515.28 1120.36 1551.47 1260.88 1530.86 1260.28 1522.71 1226.06 1473.28 1224.63 1463.15 1258.32 1442.54 1257.73Z"
       fill="#333333"
       fill-rule="evenodd"
       id="path11" /><text
       fill="#000000"
       fill-opacity="0"
       font-family="Arial,Arial_MSFontService,sans-serif"
       font-size="141.342"
       x="1442.54"
       y="1243.21"
       id="text11">A</text><path
       d="M1582.71 1119.39 1595.93 1117.56 1602.94 1116.59 1608.77 1115.78 1662.99 1215.31 1664.94 1215.04 1650.39 1110.02 1670.62 1107.21 1689.74 1245.31 1672.43 1247.7 1669.52 1248.11 1663.68 1248.92 1609.46 1149.38 1607.51 1149.65 1622.06 1254.68 1601.83 1257.48Z"
       fill="#333333"
       fill-rule="evenodd"
       id="path12" /><text
       fill="#000000"
       fill-opacity="0"
       font-family="Arial,Arial_MSFontService,sans-serif"
       font-size="150.266"
       x="1582.71"
       y="1238.7"
       id="text12">N</text><path
       d="M1705.74 1099.16 1736.05 1088.59 1755.33 1081.86 1785.83 1071.23 1791.97 1088.84 1761.48 1099.48 1795.1 1195.88 1825.6 1185.25 1831.74 1202.86 1801.24 1213.5 1781.96 1220.22 1751.65 1230.79 1745.5 1213.18 1775.82 1202.61 1742.19 1106.2 1711.88 1116.77Z"
       fill="#333333"
       fill-rule="evenodd"
       id="path13" /><text
       fill="#000000"
       fill-opacity="0"
       font-family="Arial,Arial_MSFontService,sans-serif"
       font-size="159.567"
       x="1705.74"
       y="1210.85"
       id="text13">I</text><path
       d="M1855.07 1026.02C1862.87 1020.38 1870.55 1016.71 1878.11 1014.99 1885.68 1013.28 1892.44 1013.75 1898.39 1016.39L1895.06 1036.6C1890.07 1034.72 1885.02 1034.13 1879.92 1034.83 1874.81 1035.53 1870.11 1037.44 1865.81 1040.54 1855.58 1047.94 1850.03 1057.56 1849.18 1069.4 1848.33 1081.24 1852.82 1093.95 1862.63 1107.53 1884.03 1137.13 1907.51 1142.69 1933.08 1124.2 1940.77 1118.64 1947.2 1111.57 1952.38 1102.98L1966.16 1114.34C1959.54 1124.62 1951.14 1133.44 1940.96 1140.8 1905.84 1166.18 1874.25 1159.46 1846.18 1120.64 1832.88 1102.23 1827 1084.77 1828.55 1068.26 1830.11 1051.76 1838.95 1037.67 1855.07 1026.02Z"
       fill="#333333"
       fill-rule="evenodd"
       id="path14" /><text
       fill="#000000"
       fill-opacity="0"
       font-family="Arial,Arial_MSFontService,sans-serif"
       font-size="141.869"
       x="1828.31"
       y="1138.12"
       id="text14">C</text></g><path
     style="fill:#f9f9f9;stroke-width:0.751418"
     d="m 255.1065,458.3486 c -15.64307,-3.13988 -32.51144,-17.73954 -38.78554,-33.5691 -1.45687,-3.67568 -1.73308,-5.77796 -1.75766,-13.378 -0.0338,-10.44048 1.19655,-15.06817 6.93295,-26.07753 8.2733,-15.87823 28.9322,-38.05276 45.14689,-48.45909 9.3737,-6.01589 21.10703,-10.00862 29.348,-9.98683 11.62236,0.0307 24.60121,6.33294 34.38497,16.69651 15.40981,16.32303 17.37127,34.67816 6.03825,56.5051 -8.56157,16.4892 -27.59694,37.42372 -43.88054,48.25845 -13.04465,8.67961 -26.34062,12.23581 -37.42732,10.01049 z m 12.44987,-19.96845 c 9.9296,-2.91836 21.18344,-10.85523 32.63928,-23.01916 25.18158,-26.73804 30.58967,-47.37971 16.10885,-61.48447 -4.94972,-4.82118 -9.64193,-6.98468 -15.93935,-7.34936 -12.28987,-0.7117 -24.80153,6.12502 -41.0013,22.40427 -13.39341,13.45913 -22.60388,27.30195 -24.93875,37.48154 -1.26603,5.51969 -0.5959,13.3913 1.51048,17.74249 2.9907,6.17797 10.6411,12.69099 17.29237,14.72155 3.23882,0.98877 10.08089,0.75152 14.32842,-0.49686 z"
     id="path15" /><path
     style="fill:#f9f9f9;stroke-width:0.751418"
     d="m 399.66818,543.07984 -10.23048,-4.48137 -0.46622,-8.74495 c -0.25643,-4.80973 -0.68855,-18.04544 -0.96028,-29.4127 l -0.49405,-20.66773 -13.46305,-5.92519 c -7.60966,-3.34906 -13.72703,-5.63432 -14.07023,-5.25619 -0.33395,0.36794 -5.09943,10.98221 -10.58995,23.58725 -5.49053,12.60504 -10.18465,23.15235 -10.43139,23.43848 -0.24673,0.28611 -4.39616,-1.19622 -9.22095,-3.29408 -8.05072,-3.50052 -8.7209,-3.94509 -8.147,-5.40443 1.33641,-3.39831 54.77519,-124.60674 55.06466,-124.8962 0.63885,-0.63886 48.45728,20.92888 53.11249,23.95554 13.89102,9.03146 20.68412,22.31179 18.72509,36.60708 -0.87963,6.41885 -2.45754,11.16549 -5.99499,18.03404 -7.28143,14.13815 -17.96573,22.11698 -30.9463,23.1101 l -5.1059,0.39064 0.48334,7.97436 c 0.684,11.28488 3.08282,55.29825 3.01887,55.3902 -0.0292,0.0421 -4.6569,-1.94011 -10.28366,-4.40485 z m 16.55671,-80.77229 c 9.63572,-5.95731 14.95419,-22.9188 10.31218,-32.88725 -3.10032,-6.65775 -7.55512,-9.81041 -24.20198,-17.12778 -8.16859,-3.59063 -14.92172,-6.44349 -15.00695,-6.33968 -1.16357,1.41714 -19.74179,45.32042 -19.32935,45.67832 0.31452,0.27294 6.95658,3.27002 14.76011,6.66019 14.99074,6.51258 19.6939,7.70847 26.33709,6.69684 2.03822,-0.31038 5.24622,-1.51667 7.1289,-2.68064 z"
     id="path16" /><path
     style="fill:#f9f9f9;stroke-width:0.751418"
     d="m 530.12558,577.34706 c -17.11156,-1.59253 -31.69207,-6.03619 -41.82002,-12.74535 -20.42183,-13.52825 -27.10948,-37.40614 -20.12591,-71.85846 6.1038,-30.11209 20.60051,-49.49638 42.40906,-56.70731 5.39901,-1.78517 7.12119,-1.98632 16.90691,-1.97469 9.40022,0.0112 11.92595,0.288 18.40335,2.01702 14.13944,3.77427 24.82667,10.30423 30.3145,18.52232 1.7215,2.57797 3.12863,4.90229 3.12695,5.16515 -0.004,0.55454 -15.48848,10.62209 -16.33786,10.62209 -0.31271,0 -1.37335,-1.51702 -2.35697,-3.37115 -3.7325,-7.03586 -12.30139,-12.98909 -21.09696,-14.65714 -25.79282,-4.89151 -44.03081,10.22303 -51.22164,42.44938 -2.14452,9.61089 -2.71358,26.86738 -1.11044,33.67388 4.44267,18.86239 19.31398,29.80413 42.27058,31.10108 l 7.62716,0.4309 0.89949,-4.42474 c 0.49471,-2.43361 2.02909,-9.82772 3.40972,-16.43137 1.38063,-6.60363 2.44664,-12.06542 2.36892,-12.1373 -0.0777,-0.0719 -6.04333,-1.35991 -13.2569,-2.86228 -7.21358,-1.50238 -13.23939,-2.85539 -13.39069,-3.0067 -0.68784,-0.68784 3.11996,-16.95074 3.96885,-16.95074 1.27947,0 43.99777,8.80565 44.29128,9.12989 0.18713,0.20672 -12.36238,63.12248 -12.66037,63.47155 -0.25292,0.29628 -20.14117,0.77458 -22.61901,0.54397 z"
     id="path17" /><path
     style="fill:#f9f9f9;stroke-width:0.751418"
     d="m 696.94043,589.27464 -9.76843,-0.21299 -4.05854,-17.17642 -4.05853,-17.17642 -18.48402,-0.45904 c -10.1662,-0.25247 -21.4191,-0.63746 -25.00642,-0.85552 l -6.52241,-0.39648 -1.88262,6.22223 c -1.03544,3.42223 -3.32949,11.07348 -5.09788,17.00278 l -3.21526,10.78054 -9.1694,-0.26069 c -5.04317,-0.14337 -9.41448,-0.50596 -9.71402,-0.80574 -0.45611,-0.4565 8.51335,-28.95498 39.44178,-125.3175 l 3.73821,-11.64698 13.74895,0.2596 c 7.56193,0.14279 13.81909,0.32564 13.90481,0.40633 0.20633,0.19424 36.18948,139.84928 36.03319,139.84928 -0.0665,0 -4.51677,-0.0958 -9.88941,-0.21298 z m -22.35344,-53.70128 c -0.19105,-0.5166 -4.03129,-16.45063 -8.53384,-35.40895 -7.36874,-31.02658 -8.96891,-36.38309 -10.43184,-34.92015 -0.16611,0.1661 -4.93083,15.6777 -10.58827,34.47021 -5.65744,18.79251 -10.44277,34.58212 -10.63407,35.08802 -0.26306,0.69568 2.55391,0.97534 11.55995,1.14764 6.54927,0.1253 15.748,0.30312 20.44161,0.39516 6.56575,0.12875 8.45374,-0.0493 8.18646,-0.77193 z"
     id="path18" /><path
     style="fill:#f9f9f9;stroke-width:0.751418"
     d="m 757.9698,584.03389 c -0.95571,-4.96407 -18.71403,-134.7959 -18.47,-135.03503 0.36836,-0.36097 21.37697,-3.40783 23.49754,-3.40783 1.46286,0 5.32056,6.66868 28.68152,49.58095 19.74798,36.27547 27.34422,49.58434 28.30631,49.5936 0.72324,0.007 1.31498,-0.21496 1.31498,-0.49316 0,-0.2782 -3.23058,-23.81689 -7.17906,-52.30821 -3.94849,-28.49132 -6.96404,-52.01743 -6.70123,-52.28024 0.41915,-0.41915 18.62305,-3.17901 18.85392,-2.85841 0.19322,0.26833 18.98013,136.84864 18.84267,136.98571 -0.0806,0.0804 -5.75907,0.95442 -12.61874,1.94223 l -12.4721,1.79603 -26.97735,-49.53253 c -14.83754,-27.24288 -27.4146,-49.70535 -27.94903,-49.91658 -0.53442,-0.21124 -1.19575,-0.15999 -1.46962,0.11388 -0.27387,0.27387 2.65355,23.39358 6.50538,51.37713 3.85183,27.98354 7.0492,51.54791 7.10527,52.36525 0.0904,1.31747 -0.66531,1.58795 -6.66084,2.38413 -3.71952,0.49395 -7.98905,1.09055 -9.48784,1.32581 -2.51142,0.39418 -2.75619,0.26617 -3.12178,-1.63273 z"
     id="path19" /><path
     style="fill:#f9f9f9;stroke-width:0.751418"
     d="m 905.09611,551.15195 c -1.63845,-4.59874 -2.56134,-8.25551 -2.17897,-8.63372 0.36482,-0.36085 7.05793,-2.87232 14.87358,-5.58104 7.81564,-2.70871 14.28406,-5.01129 14.37426,-5.11685 0.22877,-0.26773 -33.27953,-96.05901 -33.77542,-96.5549 -0.2217,-0.2217 -6.92162,1.84661 -14.88872,4.59624 -7.96709,2.74963 -14.69454,4.99451 -14.94988,4.98863 -0.86772,-0.02 -6.1284,-15.88629 -5.45899,-16.46442 1.57675,-1.36175 77.81232,-27.2985 78.41111,-26.6769 0.35788,0.37152 1.83958,4.10901 3.29265,8.30554 l 2.64196,7.63006 -14.97418,5.14405 c -8.33216,2.86234 -14.97588,5.5463 -14.978,6.05089 -0.004,0.90001 32.90825,95.75055 33.39227,96.23458 0.13892,0.13891 6.96797,-2.09673 15.17566,-4.96811 12.44128,-4.35243 15.0282,-5.03759 15.55509,-4.11989 0.3476,0.60543 1.73484,4.37559 3.08276,8.37813 l 2.45077,7.27736 -38.77513,13.46179 c -21.32632,7.40399 -39.14715,13.58879 -39.60184,13.744 -0.46603,0.15907 -2.06671,-3.19824 -3.66898,-7.69544 z"
     id="path20" /><path
     style="fill:#f9f9f9;stroke-width:0.751418"
     d="m 1049.5535,483.8887 c -12.5442,-2.11223 -23.609,-8.72483 -35.6879,-21.32794 -8.8813,-9.26679 -14.74315,-17.33036 -20.09173,-27.63822 -15.56893,-30.00466 -10.71615,-56.76903 13.87803,-76.54102 14.878,-11.96088 31.1416,-17.25797 42.5683,-13.8646 l 3.7673,1.11877 -1.4937,9.21323 c -0.8216,5.06727 -1.5828,9.32675 -1.6916,9.4655 -0.1088,0.13876 -2.6767,-0.14761 -5.7065,-0.63636 -19.4326,-3.13481 -38.3998,12.97742 -40.1887,34.13936 -0.9426,11.15142 2.6354,22.53683 11.1195,35.3829 20.9653,31.74397 45.4259,39.17234 71.2757,21.64548 6.09,-4.12915 14.7692,-12.71064 18.7093,-18.49862 l 2.4562,-3.6082 3.5064,2.82913 c 8.2008,6.61695 9.1155,7.42623 9.1284,8.07609 0.022,1.09793 -5.9053,8.68404 -10.8387,13.87262 -17.9731,18.90279 -42.3029,29.47139 -60.7103,26.37188 z"
     id="path21" /></svg>
